PathFileType	4	(X/Y/Z)	./resultDataOpenSim/trcMotMarkerGrf/sub06/qtm-01-06.trc
DataRate	CameraRate	NumFrames	NumMarkers	Units	OrigDataRate	OrigDataStartFrame	OrigNumFrames
250.000000	250.000000	13	24	m	250.000000	63	501
Frame#	Time	L.Toe.Tip			R.Toe.Tip			L.Ankle.Lat			R.Ankle.Lat			L.Ankle.Med			R.Ankle.Med			L.Heel			R.Heel			L.Knee.Lat			R.Knee.Lat			L.Knee.Med			R.Knee.Med			L.Thigh.Upper			R.Thigh.Upper			L.ASIS			R.ASIS			V.Sacral			L.Acromium			R.Acromium			C7			L.Elbow			R.Elbow			L.Wrist.Lat			R.Wrist.Lat
		X1	Y1	Z1	X2	Y2	Z2	X3	Y3	Z3	X4	Y4	Z4	X5	Y5	Z5	X6	Y6	Z6	X7	Y7	Z7	X8	Y8	Z8	X9	Y9	Z9	X10	Y10	Z10	X11	Y11	Z11	X12	Y12	Z12	X13	Y13	Z13	X14	Y14	Z14	X15	Y15	Z15	X16	Y16	Z16	X17	Y17	Z17	X18	Y18	Z18	X19	Y19	Z19	X20	Y20	Z20	X21	Y21	Z21	X22	Y22	Z22	X23	Y23	Z23	X24	Y24	Z24

63	0.248	-1.4686102	0.045676658	-0.06669208	-0.69077435	0.037722518	0.085174954	-1.4644357	0.17284851	-0.104606	-0.82371417	0.061788503	0.10942575	-1.4477156	0.17620905	-0.022539428	-0.81127754	0.079889802	0.020717797	-1.507481	0.22945428	-0.052273013	-0.88078654	0.037960175	0.047348951	-1.1334985	0.36884824	-0.12766562	-0.81658526	0.45120135	0.12473773	-1.1301457	0.35598832	-0.0099786843	-0.86679759	0.42990079	0.007693464	-1.0621422	0.74745204	-0.14548048	-0.99490661	0.77983805	0.19671295	-0.97615929	0.79798183	-0.11322948	-0.92594272	0.82676563	0.12283898	-1.140755	0.88733378	0.033470525	-1.0204894	1.2928701	-0.15792035	-1.0188779	1.2748948	0.20594618	-1.0962681	1.3238911	0.022997244	-0.99912692	0.96690454	-0.22137512	-1.1452164	0.98644452	0.24573371	-0.77855595	0.85707438	-0.18427691	-1.0846185	0.75783909	0.28986879
64	0.252	-1.4635076	0.047647391	-0.067278496	-0.69040649	0.037374141	0.084972606	-1.4543182	0.17560494	-0.10497729	-0.82358619	0.062064582	0.10906807	-1.437129	0.17832739	-0.023101405	-0.81074932	0.079647855	0.020502622	-1.4952819	0.23333012	-0.052191426	-0.88065821	0.037987522	0.047301988	-1.1218529	0.36815136	-0.12856396	-0.8119496	0.45065089	0.12530064	-1.1171747	0.35410002	-0.011312885	-0.86074337	0.43035572	0.0077734469	-1.0543826	0.74765488	-0.14494475	-0.98857447	0.78070174	0.19738328	-0.96889545	0.79827905	-0.11223322	-0.91988097	0.82767325	0.12344336	-1.1344454	0.88800552	0.033099797	-1.0141305	1.2934969	-0.15769254	-1.0121257	1.2755212	0.20615043	-1.089926	1.3245989	0.023288974	-0.99359324	0.9674283	-0.22020039	-1.1374653	0.98673366	0.24677333	-0.77381859	0.85626478	-0.18395708	-1.075541	0.75834389	0.29101021
65	0.256	-1.4576121	0.049647145	-0.06777133	-0.69016569	0.03711646	0.084850905	-1.4438817	0.17828185	-0.10525572	-0.82356414	0.062252475	0.10873937	-1.4261733	0.18045805	-0.023633732	-0.81028944	0.079465584	0.020346637	-1.4830126	0.23706868	-0.052712721	-0.88058002	0.038004997	0.047275871	-1.1100579	0.36756517	-0.1293906	-0.80779888	0.45006652	0.12598145	-1.1044038	0.35248052	-0.012493411	-0.85501646	0.43065238	0.0079199001	-1.0467036	0.74804147	-0.14440023	-0.98230178	0.78155957	0.19810488	-0.96170799	0.79869061	-0.11131205	-0.91366148	0.82858052	0.12410022	-1.128204	0.88880218	0.032595467	-1.007813	1.2941551	-0.15753078	-1.0053885	1.2762059	0.20630626	-1.0836035	1.3253884	0.023564783	-0.98808759	0.96798876	-0.21904517	-1.1297027	0.98704908	0.24775725	-0.76913472	0.85543918	-0.18367757	-1.0665304	0.75884495	0.29207207
66	0.26	-1.4507167	0.051738312	-0.068313406	-0.69003243	0.036924337	0.084810886	-1.4332586	0.18091427	-0.10551397	-0.8235455	0.062282764	0.10850627	-1.4149416	0.18263285	-0.024120679	-0.80990823	0.079336886	0.020252834	-1.4707927	0.24080705	-0.054029941	-0.8805504	0.038015326	0.047276155	-1.0981034	0.36710183	-0.13017608	-0.80397542	0.44946536	0.12676191	-1.0917784	0.3511593	-0.013512663	-0.84965247	0.43079488	0.0081195833	-1.0391295	0.74859835	-0.14383833	-0.97592725	0.78247668	0.19885364	-0.95460154	0.7992318	-0.11046345	-0.90726619	0.82948934	0.12481328	-1.1218482	0.88969198	0.03218424	-1.0015271	1.2948562	-0.1574253	-0.99866377	1.2769457	0.20642442	-1.0772945	1.3262652	0.023832672	-0.98272193	0.96856281	-0.21798326	-1.1219273	0.98736503	0.24871775	-0.76448718	0.85460879	-0.18342742	-1.057464	0.7593697	0.29305639
67	0.264	-1.4426424	0.054021213	-0.069047661	-0.68996859	0.036774092	0.084834799	-1.4225147	0.18352961	-0.10579377	-0.82344566	0.062177061	0.10838608	-1.4035557	0.18486025	-0.024537232	-0.80957363	0.079257471	0.020223871	-1.4587896	0.24443232	-0.055629513	-0.88055826	0.038023182	0.047300186	-1.0859859	0.3667656	-0.1309591	-0.80023561	0.44887947	0.12762371	-1.0792836	0.35015395	-0.014361524	-0.84468545	0.43080908	0.008385212	-1.0316958	0.7493217	-0.14326197	-0.96953885	0.78345413	0.19955428	-0.9475883	0.79991931	-0.10968551	-0.90080925	0.83039379	0.1255541	-1.1153721	0.89066411	0.031826756	-0.99526813	1.2956171	-0.15736271	-0.99195448	1.2777448	0.20651411	-1.070995	1.3272351	0.024101726	-0.97751493	0.96914976	-0.21699714	-1.1141354	0.9876918	0.24969124	-0.75985861	0.85378948	-0.18319946	-1.0482306	0.75995328	0.29397626
68	0.268	-1.4333479	0.056513255	-0.069986593	-0.68994318	0.036654034	0.084896281	-1.4116277	0.18614046	-0.10607076	-0.82326596	0.062007894	0.10834146	-1.39211	0.18716117	-0.024858812	-0.80924269	0.079227453	0.020255503	-1.4471351	0.24771791	-0.056781013	-0.88059032	0.038031732	0.04733891	-1.073731	0.36655836	-0.13175329	-0.7964277	0.4483341	0.12853557	-1.0668682	0.34950085	-0.01505066	-0.84014469	0.43073659	0.0087474527	-1.0244251	0.75020756	-0.14267409	-0.96341237	0.78443885	0.20010136	-0.94070505	0.80076985	-0.1089839	-0.89438936	0.8312949	0.12629991	-1.1087658	0.89168748	0.031452269	-0.9890393	1.2964557	-0.15732469	-0.98527025	1.278612	0.20658328	-1.0647043	1.3282978	0.024379805	-0.97240381	0.96977442	-0.21601285	-1.1063158	0.98804704	0.25067868	-0.75525738	0.85299315	-0.18299206	-1.0388095	0.76062311	0.29484728
69	0.272	-1.4228928	0.059113215	-0.071008517	-0.68994107	0.036561103	0.084973766	-1.4005484	0.18873988	-0.10630245	-0.82306824	0.061849305	0.10832378	-1.3806218	0.18957709	-0.025081141	-0.80889588	0.079246486	0.020333885	-1.4358582	0.25058767	-0.057272381	-0.88063759	0.038038562	0.047381309	-1.0613695	0.36649084	-0.1325457	-0.79256512	0.44783878	0.12945763	-1.0544092	0.34922823	-0.015621128	-0.83603248	0.43062564	0.0092231196	-1.0173143	0.75123592	-0.14206631	-0.95770906	0.78538476	0.20044337	-0.93400642	0.80178761	-0.10837089	-0.88805202	0.83220368	0.12704222	-1.1018194	0.89266113	0.031203565	-0.98284869	1.297382	-0.15729494	-0.97862904	1.2795566	0.20663977	-1.0584254	1.3294477	0.024669885	-0.9673234	0.97047321	-0.21499767	-1.0984352	0.98842833	0.25163977	-0.75075161	0.85221972	-0.18282007	-1.0292514	0.76138927	0.2956792
70	0.276	-1.4113456	0.061665607	-0.071961569	-0.68995677	0.036493094	0.085056661	-1.3892371	0.19131789	-0.1064879	-0.82290791	0.061746084	0.10831119	-1.368974	0.19216157	-0.025256892	-0.80854164	0.079306892	0.020438359	-1.4249045	0.25314548	-0.057413101	-0.88069494	0.038039224	0.047420027	-1.0489227	0.36657874	-0.13331736	-0.78878699	0.44739441	0.13036931	-1.0418373	0.34931592	-0.016098935	-0.8323079	0.43051629	0.0097863793	-1.01035	0.75237269	-0.14143484	-0.95227305	0.78629751	0.20064964	-0.92749718	0.80295398	-0.10784063	-0.88181595	0.83313091	0.12778627	-1.0942461	0.8934588	0.031346695	-0.97670564	1.2983937	-0.15726468	-0.97205614	1.2805864	0.20669251	-1.0521623	1.330679	0.024962937	-0.96224848	0.97127682	-0.21399084	-1.0904394	0.98881866	0.25252841	-0.74646242	0.85146161	-0.18271789	-1.0196547	0.7622369	0.29647626
71	0.28	-1.3987847	0.064050775	-0.072766236	-0.68998877	0.036446022	0.085144129	-1.3776555	0.19386885	-0.10665846	-0.82281902	0.061701459	0.10830521	-1.3569663	0.19494352	-0.025466398	-0.80821576	0.079390772	0.020550858	-1.4141692	0.25552963	-0.057596373	-0.88075748	0.038034398	0.047451439	-1.0364299	0.36682159	-0.13404198	-0.78534611	0.44698594	0.13128244	-1.029224	0.3497168	-0.016469699	-0.82891018	0.43043179	0.010393659	-1.0035219	0.75358621	-0.14079394	-0.94681992	0.78720647	0.2008465	-0.92103957	0.80422984	-0.10733111	-0.87568655	0.83407889	0.12854655	-1.0861454	0.89409882	0.032002515	-0.97061833	1.2994833	-0.1572293	-0.96557394	1.2817085	0.20675009	-1.0459185	1.331984	0.025236578	-0.95718463	0.97220015	-0.21304923	-1.0822808	0.98922458	0.2533656	-0.74246339	0.8507174	-0.18270293	-1.0101414	0.76313501	0.29724219
72	0.284	-1.3853416	0.066224959	-0.073437833	-0.69003836	0.036415716	0.08524041	-1.3657707	0.19635666	-0.10681707	-0.82285592	0.061677126	0.10830785	-1.344644	0.19782108	-0.025669129	-0.80796846	0.079476872	0.020665191	-1.4034876	0.25778189	-0.058034402	-0.8808198	0.038029856	0.047471872	-1.0239338	0.36720478	-0.13468796	-0.78249603	0.44656288	0.1322127	-1.0166734	0.3504033	-0.016724805	-0.82580202	0.43038532	0.01104645	-0.99681429	0.75485697	-0.14015652	-0.94126848	0.78811916	0.20109608	-0.91441403	0.80557874	-0.10674509	-0.86966325	0.83505073	0.12933316	-1.0782848	0.8948585	0.033127562	-0.96459352	1.3006483	-0.15718492	-0.95919146	1.2829278	0.20681438	-1.0396983	1.3333509	0.025470658	-0.95214647	0.97324006	-0.21218611	-1.0739369	0.98970255	0.25428857	-0.73867839	0.84999954	-0.1827357	-1.0007614	0.76407483	0.29797422
73	0.288	-1.3711921	0.068192512	-0.074028471	-0.6901096	0.036399428	0.085350407	-1.3535524	0.19870086	-0.1069304	-0.82311943	0.061608714	0.10831326	-1.3325034	0.20050865	-0.025646879	-0.80781625	0.079554319	0.020786253	-1.392559	0.25975976	-0.058548298	-0.8808797	0.038029676	0.04747946	-1.0114378	0.36772563	-0.13523734	-0.78022678	0.44606699	0.13314096	-1.0041996	0.35136702	-0.016886911	-0.82297629	0.43038423	0.011804873	-0.990201	0.75617243	-0.13951913	-0.93574452	0.7890321	0.20139226	-0.90759688	0.80700134	-0.1060682	-0.86374897	0.83606031	0.13014846	-1.071614	0.89609961	0.034731723	-0.95863717	1.3018932	-0.1571288	-0.95290728	1.2842446	0.20688178	-1.0335054	1.3347708	0.025664389	-0.94714777	0.97438305	-0.21137772	-1.0654015	0.99032722	0.25547145	-0.73495401	0.84932928	-0.18275329	-0.99139566	0.76510587	0.29865752
74	0.292	-1.3565116	0.069952797	-0.07456599	-0.69020851	0.036396018	0.085478668	-1.3409678	0.20081974	-0.10698638	-0.82367118	0.061453728	0.10832191	-1.3210341	0.2027132	-0.025229569	-0.80772697	0.079627388	0.020921756	-1.3810245	0.26124738	-0.058644485	-0.88094076	0.038032061	0.047479114	-0.99891619	0.36839395	-0.13569208	-0.77822139	0.44550581	0.13403246	-0.99174111	0.35258419	-0.01698079	-0.82041608	0.43042961	0.012707723	-0.98365474	0.75752136	-0.13888002	-0.93030978	0.7899719	0.20175282	-0.90085697	0.80852913	-0.10541044	-0.85793742	0.83711653	0.13099242	-1.0663477	0.89792527	0.036804557	-0.95275149	1.3032217	-0.15706026	-0.94671758	1.2856565	0.20695314	-1.0273441	1.3362426	0.025830323	-0.94220049	0.97561854	-0.21061007	-1.0567375	0.99112511	0.25692573	-0.73122381	0.84872584	-0.18273448	-0.98184972	0.76630684	0.2992829
75	0.296	-1.3414457	0.071481422	-0.075061759	-0.6903404	0.036405511	0.085629931	-1.328037	0.20265162	-0.10700283	-0.82439346	0.061247287	0.10835399	-1.3100346	0.2043946	-0.024555784	-0.80766839	0.079707061	0.021077504	-1.3688476	0.26225858	-0.058227541	-0.88100925	0.038032785	0.047478492	-0.98635081	0.36921778	-0.13606069	-0.77618102	0.44494742	0.13487497	-0.97925425	0.35399471	-0.017011066	-0.81806981	0.43052349	0.013695882	-0.97715673	0.75890135	-0.13825161	-0.92481215	0.79100267	0.20225585	-0.89441748	0.810171	-0.10486084	-0.85220279	0.83820771	0.13186001	-1.0616849	0.90005052	0.038980586	-0.94693261	1.3046329	-0.15698029	-0.94061542	1.2871652	0.20703288	-1.0212194	1.3377605	0.025973855	-0.93731371	0.97694483	-0.20989135	-1.0481391	0.9920479	0.25841171	-0.72753144	0.84820051	-0.18269766	-0.97204465	0.76771707	0.29986207
